# xmcd
#
# Track frame offsets:
#	150
#	25228
#	42172
#	62872
#	78546
#	100052
#	121622
#	140761
#	163342
#	189831
#	211108
#	226973
#	246462
#	269019
#	288351
#	307081
#	336523
#
# Disc length: 4652 seconds
#
# Revision: 1
# Processed by: cddbd v1.5.1PL0 Copyright (c) Steve Scherf et al.
# Submitted via: audiograbber 1.82.01
#
DISCID=fe122a11
DTITLE=Monografie - 33 Donne In Musica
DYEAR=1900
DGENRE=New Age
TTITLE0=Scarlet Rivera - The Threshold Of Paradise
TTITLE1=Marcome - Kiss Of The Night
TTITLE2=Karen Matheson - Ic Iain Ic Sheumais
TTITLE3=Suzanne ciani - Etude
TTITLE4=Flora Purim - What You See
TTITLE5=Marilyn Scott - Me Surrounder By You
TTITLE6=Busi Mhlongo - Yise Wabant A Bami-Father Of My Children
TTITLE7=Asita Hamidi and Arcobaleno - Kilele
TTITLE8=Gabriellle Roth - Jamu
TTITLE9=Carmen Lundy - My Favourite Things
TTITLE10=Sharon Buch - Little One
TTITLE11=Hiroko - Lady Moonlight
TTITLE12=Lenny White - Who Do You Love
TTITLE13=Penta Lesle Swanson - Swan Song
TTITLE14=Keiko Matsui - Mission
TTITLE15=Therese Schroeder-Sheker - For The Roses
TTITLE16=Barbara Thompson - I Can't Stay In Egypt Lan
EXTD=
EXTT0=
EXTT1=
EXTT2=
EXTT3=
EXTT4=
EXTT5=
EXTT6=
EXTT7=
EXTT8=
EXTT9=
EXTT10=
EXTT11=
EXTT12=
EXTT13=
EXTT14=
EXTT15=
EXTT16=
PLAYORDER=
